<svg xmlns="http://www.w3.org/2000/svg" viewBox="0 0 1024 500" width="1024" height="500"><defs>
<linearGradient id="sky" x1="0" y1="0" x2="0" y2="1">
  <stop offset="0" stop-color="#63C2FF"/>
  <stop offset="0.6" stop-color="#A9DEFF"/>
  <stop offset="1" stop-color="#DDF2FF"/>
</linearGradient>
<radialGradient id="sun" cx="0.256" cy="0.484" r="0.42" gradientUnits="objectBoundingBox">
  <stop offset="0" stop-color="#FFE9A0"/>
  <stop offset="0.45" stop-color="#FFC53D" stop-opacity="0.95"/>
  <stop offset="1" stop-color="#FFC53D" stop-opacity="0"/>
</radialGradient>
<radialGradient id="rayfade" cx="0.256" cy="0.484" r="0.5">
  <stop offset="0" stop-color="#FFFFFF" stop-opacity="0.55"/>
  <stop offset="1" stop-color="#FFFFFF" stop-opacity="0"/>
</radialGradient>

<radialGradient id="bodyGradfg" cx="0.40" cy="0.32" r="0.75">
  <stop offset="0" stop-color="#A07BFF"/>
  <stop offset="0.55" stop-color="#7C4DFF"/>
  <stop offset="1" stop-color="#6A3BF2"/>
</radialGradient>
<clipPath id="bodyClipfg"><path d="M128,72 C176,72 212,108 214,156 C216,198 184,224 128,224 C72,224 40,198 42,156 C44,108 80,72 128,72 Z"/></clipPath><clipPath id="mClipgfg"><path d="M110,157 Q128,161 146,157 Q144,182 128,182 Q112,182 110,157 Z"/></clipPath></defs><rect width="1024" height="500" fill="url(#sky)"/><path d="M262,242 L959.3,181.0 L959.3,303.0 Z M262,242 L929.6,452.5 L882.9,565.2 Z M262,242 L798.2,692.0 L712.0,778.2 Z M262,242 L585.2,862.9 L472.5,909.6 Z M262,242 L323.0,939.3 L201.0,939.3 Z M262,242 L51.5,909.6 L-61.2,862.9 Z M262,242 L-188.0,778.2 L-274.2,692.0 Z M262,242 L-358.9,565.2 L-405.6,452.5 Z M262,242 L-435.3,303.0 L-435.3,181.0 Z M262,242 L-405.6,31.5 L-358.9,-81.2 Z M262,242 L-274.2,-208.0 L-188.0,-294.2 Z M262,242 L-61.2,-378.9 L51.5,-425.6 Z M262,242 L201.0,-455.3 L323.0,-455.3 Z M262,242 L472.5,-425.6 L585.2,-378.9 Z M262,242 L712.0,-294.2 L798.2,-208.0 Z M262,242 L882.9,-81.2 L929.6,31.5 Z" fill="url(#rayfade)"/><ellipse cx="262" cy="242" rx="330" ry="300" fill="url(#sun)"/><circle cx="262" cy="252" r="205" fill="#FFFFFF" opacity="0.18"/><g fill="#FFFFFF" opacity="0.95" transform="translate(900 470) scale(1.25)"><ellipse cx="-60" cy="10" rx="70" ry="40"/><ellipse cx="10" cy="-12" rx="78" ry="52"/><ellipse cx="80" cy="12" rx="66" ry="38"/><rect x="-120" y="10" width="260" height="40" rx="20"/></g><g fill="#FFFFFF" opacity="0.9" transform="translate(560 505) scale(1.1)"><ellipse cx="-60" cy="10" rx="70" ry="40"/><ellipse cx="10" cy="-12" rx="78" ry="52"/><ellipse cx="80" cy="12" rx="66" ry="38"/><rect x="-120" y="10" width="260" height="40" rx="20"/></g><g fill="#FFFFFF" opacity="0.85" transform="translate(120 510) scale(1.2)"><ellipse cx="-60" cy="10" rx="70" ry="40"/><ellipse cx="10" cy="-12" rx="78" ry="52"/><ellipse cx="80" cy="12" rx="66" ry="38"/><rect x="-120" y="10" width="260" height="40" rx="20"/></g><g fill="#FFFFFF" opacity="0.7" transform="translate(930 70) scale(0.55)"><ellipse cx="-60" cy="10" rx="70" ry="40"/><ellipse cx="10" cy="-12" rx="78" ry="52"/><ellipse cx="80" cy="12" rx="66" ry="38"/><rect x="-120" y="10" width="260" height="40" rx="20"/></g><g transform="translate(520 110) rotate(-12)"><g transform="translate(0 5.8)" fill="#E39A00" stroke="#E39A00" stroke-width="8.3" stroke-linejoin="round"><rect x="-32.0" y="-10.9" width="64.0" height="21.8" rx="10.9"/><rect x="-10.9" y="-32.0" width="21.8" height="64.0" rx="32.0"/></g><g fill="#E39A00" stroke="#E39A00" stroke-width="8.3" stroke-linejoin="round"><rect x="-32.0" y="-10.9" width="64.0" height="21.8" rx="10.9"/><rect x="-10.9" y="-32.0" width="21.8" height="64.0" rx="32.0"/></g><g fill="#FFC53D"><rect x="-32.0" y="-10.9" width="64.0" height="21.8" rx="10.9"/><rect x="-10.9" y="-32.0" width="21.8" height="64.0" rx="32.0"/></g><circle cx="-17.6" cy="-2.6" r="3.5" fill="#FFFFFF" opacity="0.8"/></g><g transform="translate(915 112) rotate(8)"><g transform="translate(0 4.9)" fill="#DB4FA0" stroke="#DB4FA0" stroke-width="7.0" stroke-linejoin="round"><g transform="rotate(45)"><rect x="-27.0" y="-9.2" width="54.0" height="18.4" rx="9.2"/><rect x="-9.2" y="-27.0" width="18.4" height="54.0" rx="27.0"/></g></g><g fill="#DB4FA0" stroke="#DB4FA0" stroke-width="7.0" stroke-linejoin="round"><g transform="rotate(45)"><rect x="-27.0" y="-9.2" width="54.0" height="18.4" rx="9.2"/><rect x="-9.2" y="-27.0" width="18.4" height="54.0" rx="27.0"/></g></g><g fill="#FF7AC6"><g transform="rotate(45)"><rect x="-27.0" y="-9.2" width="54.0" height="18.4" rx="9.2"/><rect x="-9.2" y="-27.0" width="18.4" height="54.0" rx="27.0"/></g></g><circle cx="-14.9" cy="-2.2" r="2.9" fill="#FFFFFF" opacity="0.8"/></g><g transform="translate(855 378) rotate(-10)"><g transform="translate(0 5.2)" fill="#14A176" stroke="#14A176" stroke-width="7.5" stroke-linejoin="round"><rect x="-29.0" y="-9.9" width="58.0" height="19.7" rx="9.9"/></g><g fill="#14A176" stroke="#14A176" stroke-width="7.5" stroke-linejoin="round"><rect x="-29.0" y="-9.9" width="58.0" height="19.7" rx="9.9"/></g><g fill="#22C993"><rect x="-29.0" y="-9.9" width="58.0" height="19.7" rx="9.9"/></g><circle cx="-16.0" cy="-2.4" r="3.2" fill="#FFFFFF" opacity="0.8"/></g><g transform="translate(545 375) rotate(10)"><g transform="translate(0 4.9)" fill="#1C8FD6" stroke="#1C8FD6" stroke-width="7.0" stroke-linejoin="round"><rect x="-27.0" y="-21.5" width="54.0" height="16.5" rx="8.3"/><rect x="-27.0" y="5.0" width="54.0" height="16.5" rx="8.3"/></g><g fill="#1C8FD6" stroke="#1C8FD6" stroke-width="7.0" stroke-linejoin="round"><rect x="-27.0" y="-21.5" width="54.0" height="16.5" rx="8.3"/><rect x="-27.0" y="5.0" width="54.0" height="16.5" rx="8.3"/></g><g fill="#38B6FF"><rect x="-27.0" y="-21.5" width="54.0" height="16.5" rx="8.3"/><rect x="-27.0" y="5.0" width="54.0" height="16.5" rx="8.3"/></g><circle cx="-14.9" cy="-2.2" r="2.9" fill="#FFFFFF" opacity="0.8"/></g><g transform="translate(700 405) rotate(14)"><g transform="translate(0 3.6)" fill="#D94646" stroke="#D94646" stroke-width="5.2" stroke-linejoin="round"><rect x="-20.0" y="-6.8" width="40.0" height="13.6" rx="6.8"/><rect x="-6.8" y="-20.0" width="13.6" height="40.0" rx="20.0"/></g><g fill="#D94646" stroke="#D94646" stroke-width="5.2" stroke-linejoin="round"><rect x="-20.0" y="-6.8" width="40.0" height="13.6" rx="6.8"/><rect x="-6.8" y="-20.0" width="13.6" height="40.0" rx="20.0"/></g><g fill="#FF6B6B"><rect x="-20.0" y="-6.8" width="40.0" height="13.6" rx="6.8"/><rect x="-6.8" y="-20.0" width="13.6" height="40.0" rx="20.0"/></g><circle cx="-11.0" cy="-1.6" r="2.2" fill="#FFFFFF" opacity="0.8"/></g><g opacity="1.0" transform="translate(790 86) rotate(12) scale(0.6094) translate(-64 -64)">
  
  <path d="M64 30
           C 30 30 22 60 38 92
           C 48 110 56 116 64 116
           C 72 116 80 110 90 92
           C 106 60 98 30 64 30 Z"
        fill="#E63946" stroke="#9B1C2A" stroke-width="3" stroke-linejoin="round"/>
  
  <ellipse cx="48" cy="56" rx="9" ry="14" fill="#FF7A8C" opacity="0.65"/>
  
  <g fill="#FFE89A">
    <ellipse cx="56" cy="60" rx="2" ry="3"/>
    <ellipse cx="74" cy="58" rx="2" ry="3"/>
    <ellipse cx="46" cy="78" rx="2" ry="3"/>
    <ellipse cx="64" cy="80" rx="2" ry="3"/>
    <ellipse cx="82" cy="76" rx="2" ry="3"/>
    <ellipse cx="56" cy="96" rx="2" ry="3"/>
    <ellipse cx="74" cy="98" rx="2" ry="3"/>
  </g>
  
  <g fill="#3F7A33" stroke="#1F4F1A" stroke-width="2" stroke-linejoin="round">
    <path d="M50 26 Q40 18 38 30 Q48 34 56 34 Z"/>
    <path d="M64 22 Q60 12 64 12 Q68 12 64 22 Z"/>
    <path d="M78 26 Q88 18 90 30 Q80 34 72 34 Z"/>
  </g>

</g><g opacity="1.0" transform="translate(648 96) rotate(-10) scale(0.4844) translate(-64 -64)">
  
  <circle cx="64" cy="68" r="44" fill="#F2913A" stroke="#A85317" stroke-width="3"/>
  
  <ellipse cx="46" cy="50" rx="14" ry="20" fill="#FFB970" opacity="0.7"/>
  
  <circle cx="64" cy="26" r="6" fill="#A85317"/>
  <rect x="60" y="14" width="8" height="14" fill="#5A3A14" rx="2"/>
  
  <ellipse cx="84" cy="22" rx="14" ry="7" fill="#3F7A33" stroke="#1F4F1A"
           stroke-width="1.5" transform="rotate(-25 84 22)"/>

</g><g opacity="1.0" transform="translate(955 345) rotate(10) scale(0.4688) translate(-64 -64)">
  
  <circle cx="64" cy="64" r="40" fill="#CC0000" stroke="#990000" stroke-width="1" />

  
  <ellipse cx="45" cy="50" rx="14" ry="20" fill="#FF3333" opacity="0.7" />

  
  <rect x="61" y="20" width="6" height="16" fill="#8B4513" />

  
  <ellipse cx="78" cy="28" rx="16" ry="10" fill="#228B22" transform="rotate(-30 78 28)" />

  
  <line x1="70" y1="28" x2="86" y2="28" stroke="#1a6b1a" stroke-width="0.5" opacity="0.6" />

</g><g opacity="1.0" transform="translate(395 420) rotate(-20) scale(0.5781) translate(-64 -64)">
  
  <path d="M28 78 Q24 38 60 22 Q72 18 90 22 Q88 30 78 30 Q56 38 50 60 Q44 84 70 100 Q56 100 44 96 Q34 90 28 78 Z"
        fill="#F2C94C" stroke="#A87613" stroke-width="3" stroke-linejoin="round"/>
  
  <path d="M40 50 Q60 30 86 28" fill="none" stroke="#FFE89A" stroke-width="3"
        stroke-linecap="round" opacity="0.85"/>
  
  <rect x="84" y="18" width="8" height="10" fill="#5A3A14" rx="2"/>

</g><g opacity="1.0" transform="translate(90 110) rotate(-14) scale(0.5156) translate(-64 -64)">
  
  <g fill="#7B3FA0" stroke="#3D1854" stroke-width="2">
    <circle cx="36" cy="46" r="14"/>
    <circle cx="62" cy="42" r="14"/>
    <circle cx="88" cy="46" r="14"/>
    <circle cx="50" cy="68" r="14"/>
    <circle cx="74" cy="68" r="14"/>
    <circle cx="62" cy="92" r="14"/>
  </g>
  
  <g fill="#B884D6" opacity="0.7">
    <circle cx="32" cy="42" r="4"/>
    <circle cx="58" cy="38" r="4"/>
    <circle cx="84" cy="42" r="4"/>
    <circle cx="46" cy="64" r="4"/>
  </g>
  
  <path d="M62 30 Q60 18 70 12" stroke="#5A3A14" stroke-width="3"
        fill="none" stroke-linecap="round"/>
  <ellipse cx="80" cy="14" rx="12" ry="6" fill="#3F7A33"
           stroke="#1F4F1A" stroke-width="1.5" transform="rotate(-15 80 14)"/>

</g><g opacity="1.0" transform="translate(82 360) rotate(16) scale(0.5469) translate(-64 -64)">
  
  
  <path d="M14 70 A 50 50 0 0 1 114 70 L 114 78 A 50 50 0 0 0 14 78 Z"
        fill="#3F7A33" stroke="#1F4F1A" stroke-width="3" stroke-linejoin="round"/>
  
  <path d="M22 70 A 42 42 0 0 1 106 70 L 106 70 A 42 42 0 0 0 22 70 Z"
        fill="#9DCB46" stroke="#3F7A33" stroke-width="1"/>
  
  <path d="M28 70 A 36 36 0 0 1 100 70 Z"
        fill="#E63946" stroke="#9B1C2A" stroke-width="2"/>
  
  <g fill="#2A1A0A">
    <ellipse cx="46" cy="58" rx="2" ry="3" transform="rotate(-15 46 58)"/>
    <ellipse cx="58" cy="50" rx="2" ry="3" transform="rotate(5 58 50)"/>
    <ellipse cx="70" cy="48" rx="2" ry="3" transform="rotate(-20 70 48)"/>
    <ellipse cx="82" cy="54" rx="2" ry="3" transform="rotate(15 82 54)"/>
    <ellipse cx="50" cy="64" rx="2" ry="3" transform="rotate(0 50 64)"/>
    <ellipse cx="76" cy="64" rx="2" ry="3" transform="rotate(20 76 64)"/>
    <ellipse cx="64" cy="62" rx="2" ry="3" transform="rotate(-5 64 62)"/>
  </g>

</g><g transform="translate(54.6 54.6) scale(1.62)"><ellipse cx="128" cy="234" rx="70" ry="10" fill="#2B2350" opacity="0.16"/><path d="M128,76 C126,58 132,44 144,34" fill="none" stroke="#4321A8" stroke-width="7" stroke-linecap="round"/><g fill="#E39A00" stroke="#E39A00" stroke-width="6" stroke-linejoin="round"><rect x="128.5" y="21.5" width="39.0" height="13" rx="6.5"/><rect x="141.5" y="8.5" width="13" height="39.0" rx="6.5"/></g><g fill="#FFC53D"><rect x="128.5" y="21.5" width="39.0" height="13" rx="6.5"/><rect x="141.5" y="8.5" width="13" height="39.0" rx="6.5"/></g><circle cx="144" cy="24" r="2.6" fill="#FFFFFF" opacity="0.8"/>
<g stroke="#4321A8" stroke-width="6" fill="#5B2FD9">
  <ellipse cx="98" cy="222" rx="22" ry="12"/>
  <ellipse cx="158" cy="222" rx="22" ry="12"/>
</g>
<path d="M128,72 C176,72 212,108 214,156 C216,198 184,224 128,224 C72,224 40,198 42,156 C44,108 80,72 128,72 Z" fill="#5B2FD9"/>
<g clip-path="url(#bodyClipfg)">
  <ellipse cx="128" cy="140" rx="96" ry="78" fill="url(#bodyGradfg)"/>
  <ellipse cx="92" cy="104" rx="26" ry="14" fill="#FFFFFF" opacity="0.35" transform="rotate(-28 92 104)"/>
  <circle cx="120" cy="88" r="5" fill="#FFFFFF" opacity="0.45"/>
</g>
<path d="M128,72 C176,72 212,108 214,156 C216,198 184,224 128,224 C72,224 40,198 42,156 C44,108 80,72 128,72 Z" fill="none" stroke="#4321A8" stroke-width="6" stroke-linejoin="round"/>
<g fill="#FF7AC6" opacity="0.6">
  <ellipse cx="74" cy="164" rx="14" ry="9"/>
  <ellipse cx="182" cy="164" rx="14" ry="9"/>
</g><ellipse cx="26" cy="128" rx="12" ry="23" transform="rotate(-48 26 128)" fill="#7C4DFF" stroke="#4321A8" stroke-width="6"/><ellipse cx="230" cy="128" rx="12" ry="23" transform="rotate(48 230 128)" fill="#7C4DFF" stroke="#4321A8" stroke-width="6"/><ellipse cx="101" cy="130" rx="16" ry="21" fill="#2B2350"/><circle cx="106" cy="122" r="6" fill="#FFFFFF"/><circle cx="96" cy="138" r="2.8" fill="#FFFFFF" opacity="0.9"/><ellipse cx="155" cy="130" rx="16" ry="21" fill="#2B2350"/><circle cx="160" cy="122" r="6" fill="#FFFFFF"/><circle cx="150" cy="138" r="2.8" fill="#FFFFFF" opacity="0.9"/><path d="M110,157 Q128,161 146,157 Q144,182 128,182 Q112,182 110,157 Z" fill="#2B2350" stroke="#2B2350" stroke-width="4" stroke-linejoin="round"/><g clip-path="url(#mClipgfg)"><ellipse cx="128" cy="184" rx="13" ry="10" fill="#FF6B6B"/></g></g><path d="M120,212 Q123.24,226.76 138,230 Q123.24,233.24 120,248 Q116.76,233.24 102,230 Q116.76,226.76 120,212 Z" fill="#FFC53D" stroke="#E39A00" stroke-width="3" stroke-linejoin="round"/><path d="M410,144 Q412.88,157.12 426,160 Q412.88,162.88 410,176 Q407.12,162.88 394,160 Q407.12,157.12 410,144 Z" fill="#FF7AC6" stroke="#DB4FA0" stroke-width="3" stroke-linejoin="round"/><path d="M418,319 Q419.98,328.02 429,330 Q419.98,331.98 418,341 Q416.02,331.98 407,330 Q416.02,328.02 418,319 Z" fill="#38B6FF" stroke="#1C8FD6" stroke-width="3" stroke-linejoin="round"/><path d="M150,50 Q151.8,58.2 160,60 Q151.8,61.8 150,70 Q148.2,61.8 140,60 Q148.2,58.2 150,50 Z" fill="#22C993" stroke="#14A176" stroke-width="3" stroke-linejoin="round"/><path d="M760,438 Q762.16,447.84 772,450 Q762.16,452.16 760,462 Q757.84,452.16 748,450 Q757.84,447.84 760,438 Z" fill="#FFC53D" stroke="#E39A00" stroke-width="3" stroke-linejoin="round"/><path d="M975,410 Q976.8,418.2 985,420 Q976.8,421.8 975,430 Q973.2,421.8 965,420 Q973.2,418.2 975,410 Z" fill="#FF7AC6" stroke="#DB4FA0" stroke-width="3" stroke-linejoin="round"/></svg>
